<?xml version="1.0" encoding="UTF-8" standalone="no"?>
<!DOCTYPE svg PUBLIC "-//W3C//DTD SVG 1.1//EN" "http://www.w3.org/Graphics/SVG/1.1/DTD/svg11.dtd">
<svg width="100%" height="100%" viewBox="0 0 256 256" version="1.1" xmlns="http://www.w3.org/2000/svg" xmlns:xlink="http://www.w3.org/1999/xlink" xml:space="preserve" xmlns:serif="http://www.serif.com/" style="fill-rule:evenodd;clip-rule:evenodd;stroke-linejoin:round;stroke-miterlimit:2;">
    <g id="dot-0" transform="matrix(3.2,0,0,3.2,0,0)">
        <circle cx="8" cy="8" r="8" style="fill:white;"/>
    </g>
    <g id="dot-1" transform="matrix(3.2,0,0,3.2,0,0)">
        <circle cx="40" cy="8" r="8" style="fill:rgb(105,105,105);"/>
    </g>
    <g id="dot-2" transform="matrix(3.2,0,0,3.2,0,0)">
        <circle cx="72" cy="8" r="8" style="fill:rgb(105,105,105);"/>
    </g>
    <g id="dot-3" transform="matrix(3.2,0,0,3.2,0,0)">
        <circle cx="8" cy="40" r="8" style="fill:rgb(105,105,105);"/>
    </g>
    <g id="dot-5" transform="matrix(3.2,0,0,3.2,0,0)">
        <circle cx="72" cy="40" r="8" style="fill:rgb(105,105,105);"/>
    </g>
    <g id="dot-6" transform="matrix(3.2,0,0,3.2,0,0)">
        <circle cx="8" cy="72" r="8" style="fill:rgb(105,105,105);"/>
    </g>
    <g id="dot-7" transform="matrix(3.2,0,0,3.2,0,0)">
        <circle cx="40" cy="72" r="8" style="fill:rgb(105,105,105);"/>
    </g>
    <g id="dot-8" transform="matrix(3.2,0,0,3.2,0,0)">
        <circle cx="72" cy="72" r="8" style="fill:rgb(105,105,105);"/>
    </g>
</svg>
